<?xml version="1.0" standalone="no"?>
<!DOCTYPE svg PUBLIC "-//W3C//DTD SVG 20010904//EN"
 "http://www.w3.org/TR/2001/REC-SVG-20010904/DTD/svg10.dtd">
<svg version="1.0" xmlns="http://www.w3.org/2000/svg"
 width="700.000000pt" height="700.000000pt" viewBox="0 0 700.000000 700.000000"
 preserveAspectRatio="xMidYMid meet">
<metadata>
Created by potrace 1.11, written by Peter Selinger 2001-2013
</metadata>
<g transform="translate(0.000000,700.000000) scale(0.100000,-0.100000)"
fill="#000000" stroke="none">
<path d="M1420 5672 c-36 -9 -85 -29 -110 -44 -56 -33 -141 -121 -169 -176
-53 -104 -51 -10 -51 -2157 0 -1230 4 -2012 10 -2049 23 -140 119 -268 247
-329 l68 -32 450 -7 c248 -5 1179 -7 2070 -6 l1620 3 60 24 c151 60 252 177
284 329 15 72 16 3998 0 4091 -29 179 -167 322 -347 360 -38 8 -631 11 -2060
10 -1855 0 -2012 -1 -2072 -17z m3589 -1321 c112 -58 160 -190 110 -301 -28
-63 -1759 -1796 -1828 -1831 -71 -36 -156 -38 -223 -6 -75 36 -937 889 -967
957 -86 192 110 394 299 309 34 -15 137 -112 407 -382 l363 -362 802 801 c475
474 817 807 838 817 50 23 151 22 199 -2z"/>
</g>
</svg>
